<svg 
 xmlns="http://www.w3.org/2000/svg"
 xmlns:xlink="http://www.w3.org/1999/xlink"
 width="699px" height="312px">
<path fill-rule="evenodd"  fill="rgb(255, 255, 255)"
 d="M698.333,155.353 L695.835,155.207 C694.887,155.147 694.091,155.362 693.447,155.855 C692.802,156.347 692.304,157.006 691.952,157.833 L691.952,169.010 L694.924,169.520 L694.924,171.818 L685.388,171.818 L685.388,169.520 L688.360,169.010 L688.360,154.916 L685.388,154.405 L685.388,152.090 L691.569,152.090 L691.879,154.606 L691.915,154.952 C692.474,153.943 693.164,153.153 693.985,152.582 C694.805,152.011 695.744,151.725 696.802,151.725 C697.178,151.725 697.564,151.759 697.959,151.825 C698.354,151.892 698.637,151.956 698.807,152.017 L698.333,155.353 ZM670.527,162.883 C670.551,164.148 670.773,165.269 671.193,166.247 C671.612,167.226 672.217,167.995 673.007,168.554 C673.797,169.113 674.745,169.393 675.851,169.393 C677.067,169.393 678.133,169.219 679.051,168.873 C679.969,168.527 680.762,168.050 681.431,167.442 L682.834,169.776 C682.129,170.456 681.196,171.031 680.036,171.499 C678.875,171.966 677.480,172.201 675.851,172.201 C674.028,172.201 672.442,171.784 671.092,170.952 C669.743,170.119 668.701,168.961 667.965,167.478 C667.230,165.995 666.862,164.281 666.862,162.336 L666.862,161.534 C666.862,159.663 667.248,157.988 668.020,156.511 C668.792,155.034 669.819,153.867 671.102,153.010 C672.384,152.153 673.785,151.725 675.304,151.725 C677.079,151.725 678.565,152.090 679.762,152.819 C680.959,153.548 681.862,154.572 682.470,155.891 C683.077,157.210 683.381,158.763 683.381,160.550 L683.381,162.792 L670.582,162.792 L670.527,162.883 ZM670.691,159.984 L679.790,159.984 L679.790,159.510 C679.790,158.562 679.622,157.714 679.288,156.967 C678.954,156.219 678.455,155.630 677.793,155.198 C677.130,154.767 676.301,154.551 675.304,154.551 C674.502,154.551 673.773,154.785 673.116,155.253 C672.460,155.721 671.919,156.356 671.494,157.158 C671.068,157.961 670.788,158.872 670.655,159.893 L670.691,159.984 ZM655.539,169.520 L658.511,169.010 L658.511,159.437 C658.511,157.699 658.167,156.465 657.481,155.736 C656.794,155.007 655.746,154.642 654.336,154.642 C653.302,154.642 652.388,154.891 651.592,155.390 C650.795,155.888 650.160,156.569 649.686,157.432 L649.686,169.010 L652.658,169.520 L652.658,171.818 L643.122,171.818 L643.122,169.520 L646.094,169.010 L646.094,154.916 L643.122,154.405 L643.122,152.090 L649.303,152.090 L649.559,155.025 C650.215,153.980 651.038,153.168 652.029,152.591 C653.020,152.014 654.147,151.725 655.411,151.725 C657.538,151.725 659.186,152.348 660.352,153.594 C661.519,154.840 662.103,156.763 662.103,159.365 L662.103,169.010 L665.075,169.520 L665.075,171.818 L655.539,171.818 L655.539,169.520 ZM639.639,171.562 C639.639,173.264 639.320,174.729 638.682,175.957 C638.044,177.184 637.114,178.129 635.892,178.792 C634.671,179.454 633.185,179.785 631.434,179.785 C630.486,179.785 629.459,179.655 628.353,179.393 C627.247,179.132 626.274,178.776 625.436,178.327 L626.365,175.537 C627.034,175.890 627.824,176.181 628.736,176.412 C629.647,176.643 630.535,176.759 631.398,176.759 C633.002,176.759 634.178,176.309 634.926,175.410 C635.673,174.510 636.047,173.228 636.047,171.562 L636.047,169.684 C635.403,170.511 634.631,171.137 633.732,171.562 C632.832,171.988 631.799,172.201 630.632,172.201 C629.027,172.201 627.642,171.803 626.475,171.006 C625.308,170.210 624.411,169.098 623.785,167.670 C623.159,166.241 622.846,164.585 622.846,162.701 L622.846,162.318 C622.846,160.203 623.159,158.350 623.785,156.757 C624.411,155.165 625.308,153.928 626.475,153.047 C627.642,152.166 629.039,151.725 630.668,151.725 C631.908,151.725 632.996,151.968 633.932,152.454 C634.868,152.941 635.652,153.646 636.284,154.569 L636.612,152.090 L637.688,152.090 L639.639,152.090 L642.082,152.090 L642.082,154.387 L639.639,154.908 L639.639,171.562 ZM636.047,157.377 C635.585,156.538 634.983,155.873 634.242,155.381 C633.501,154.888 632.607,154.642 631.562,154.642 C630.419,154.642 629.468,154.970 628.708,155.627 C627.949,156.283 627.380,157.186 627.004,158.334 C626.627,159.483 626.438,160.811 626.438,162.318 L626.438,162.701 C626.438,164.683 626.858,166.275 627.696,167.478 C628.535,168.682 629.811,169.283 631.525,169.283 C632.607,169.283 633.513,169.037 634.242,168.545 C634.971,168.053 635.573,167.357 636.047,166.457 L636.047,157.377 ZM611.505,169.520 L614.477,169.010 L614.477,154.916 L611.505,154.405 L611.505,152.090 L618.069,152.090 L618.069,169.010 L621.041,169.520 L621.041,171.818 L611.505,171.818 L611.505,169.520 ZM614.294,143.374 L618.069,143.374 L618.069,147.221 L614.294,147.221 L614.294,143.374 ZM599.507,159.374 C600.078,159.647 600.917,159.918 602.023,160.185 C604.770,160.829 606.687,161.650 607.775,162.646 C608.863,163.643 609.407,164.871 609.407,166.330 C609.407,167.995 608.790,169.390 607.557,170.514 C606.323,171.638 604.381,172.201 601.731,172.201 C600.406,172.201 599.166,172.067 598.012,171.799 C596.857,171.532 595.629,171.119 594.329,170.560 L594.292,165.874 L597.009,165.874 L597.684,168.700 C598.364,168.980 599.024,169.183 599.662,169.311 C600.300,169.438 600.990,169.502 601.731,169.502 C603.190,169.502 604.235,169.223 604.867,168.663 C605.499,168.104 605.815,167.412 605.815,166.585 C605.815,165.807 605.496,165.148 604.858,164.607 C604.220,164.066 603.062,163.607 601.385,163.230 C599.002,162.683 597.249,161.951 596.125,161.033 C595.000,160.115 594.438,158.890 594.438,157.359 C594.438,156.289 594.748,155.332 595.368,154.487 C595.988,153.642 596.851,152.971 597.957,152.472 C599.063,151.974 600.352,151.725 601.822,151.725 C603.318,151.725 604.597,151.895 605.660,152.235 C606.724,152.576 607.651,153.032 608.441,153.603 L608.623,158.106 L605.925,158.106 L605.341,155.481 C604.916,155.165 604.411,154.922 603.828,154.752 C603.245,154.581 602.576,154.496 601.822,154.496 C600.704,154.496 599.795,154.758 599.097,155.280 C598.397,155.803 598.048,156.459 598.048,157.249 C598.048,157.712 598.148,158.113 598.349,158.453 C598.550,158.793 598.935,159.100 599.507,159.374 ZM578.848,162.883 C578.872,164.148 579.094,165.269 579.514,166.247 C579.933,167.226 580.538,167.995 581.328,168.554 C582.118,169.113 583.066,169.393 584.172,169.393 C585.387,169.393 586.454,169.219 587.372,168.873 C588.290,168.527 589.083,168.050 589.751,167.442 L591.155,169.776 C590.450,170.456 589.517,171.031 588.357,171.499 C587.196,171.966 585.801,172.201 584.172,172.201 C582.349,172.201 580.763,171.784 579.413,170.952 C578.064,170.119 577.022,168.961 576.286,167.478 C575.551,165.995 575.183,164.281 575.183,162.336 L575.183,161.534 C575.183,159.663 575.569,157.988 576.341,156.511 C577.113,155.034 578.140,153.867 579.422,153.010 C580.705,152.153 582.106,151.725 583.625,151.725 C585.400,151.725 586.886,152.090 588.083,152.819 C589.280,153.548 590.183,154.572 590.791,155.891 C591.398,157.210 591.702,158.763 591.702,160.550 L591.702,162.792 L578.903,162.792 L578.848,162.883 ZM579.012,159.984 L588.110,159.984 L588.110,159.510 C588.110,158.562 587.943,157.714 587.609,156.967 C587.275,156.219 586.776,155.630 586.114,155.198 C585.451,154.767 584.622,154.551 583.625,154.551 C582.823,154.551 582.094,154.785 581.437,155.253 C580.781,155.721 580.240,156.356 579.814,157.158 C579.389,157.961 579.109,158.872 578.976,159.893 L579.012,159.984 ZM568.008,170.113 C566.288,171.250 564.255,171.818 561.909,171.818 L551.334,171.818 L551.334,169.520 L554.306,169.010 L554.306,148.097 L551.334,147.586 L551.334,145.270 L554.306,145.270 L561.727,145.270 C564.072,145.270 566.118,145.830 567.862,146.948 C569.606,148.066 570.964,149.604 571.937,151.561 C572.909,153.518 573.396,155.754 573.396,158.271 L573.396,158.836 C573.396,161.291 572.928,163.501 571.992,165.463 C571.056,167.427 569.728,168.976 568.008,170.113 ZM569.804,158.234 C569.804,156.301 569.478,154.572 568.828,153.047 C568.178,151.521 567.251,150.315 566.048,149.428 C564.844,148.540 563.404,148.097 561.727,148.097 L557.898,148.097 L557.898,169.010 L561.727,169.010 C563.404,169.010 564.844,168.551 566.048,167.633 C567.251,166.716 568.178,165.488 568.828,163.950 C569.478,162.413 569.804,160.708 569.804,158.836 L569.804,158.234 ZM529.526,241.893 L544.179,241.893 L544.179,246.486 L529.526,246.486 L529.526,241.893 ZM532.443,169.520 L534.449,169.283 L534.394,169.210 L529.404,162.770 L526.335,165.854 L526.335,169.010 L529.307,169.520 L529.307,171.818 L519.771,171.818 L519.771,169.520 L522.743,169.010 L522.743,146.200 L519.771,145.690 L519.771,143.374 L526.335,143.374 L526.335,161.705 L533.318,154.752 L533.409,154.642 L531.294,154.405 L531.294,152.090 L539.791,152.090 L539.791,154.405 L537.256,154.879 L531.708,160.454 L538.515,169.083 L541.359,169.520 L541.359,171.818 L532.443,171.818 L532.443,169.520 ZM514.309,171.298 C513.185,171.900 511.802,172.201 510.161,172.201 C508.375,172.201 506.819,171.784 505.494,170.952 C504.169,170.119 503.142,168.961 502.412,167.478 C501.683,165.995 501.318,164.281 501.318,162.336 L501.318,161.571 C501.318,159.699 501.671,158.022 502.376,156.538 C503.081,155.056 504.096,153.883 505.421,153.019 C506.746,152.157 508.326,151.725 510.161,151.725 C511.754,151.725 513.149,151.986 514.346,152.509 C515.543,153.032 516.549,153.749 517.364,154.660 L517.455,159.401 L514.647,159.401 L514.027,155.955 C513.614,155.530 513.097,155.189 512.477,154.934 C511.857,154.679 511.128,154.551 510.289,154.551 C509.219,154.551 508.280,154.867 507.472,155.499 C506.664,156.131 506.035,156.976 505.585,158.034 C505.135,159.091 504.910,160.270 504.910,161.571 L504.910,162.336 C504.910,163.771 505.120,165.017 505.539,166.074 C505.959,167.132 506.560,167.949 507.344,168.527 C508.129,169.104 509.061,169.393 510.143,169.393 C511.359,169.393 512.368,169.058 513.170,168.390 C513.972,167.721 514.464,166.804 514.647,165.637 L517.874,165.637 L517.911,165.746 C517.850,166.877 517.515,167.934 516.908,168.919 C516.300,169.903 515.434,170.696 514.309,171.298 ZM488.593,230.200 L500.601,230.200 L500.601,232.791 L488.593,232.791 L488.593,230.200 ZM493.788,170.377 C493.727,169.952 493.684,169.527 493.660,169.101 C492.967,169.988 492.101,170.727 491.062,171.316 C490.022,171.906 488.913,172.201 487.734,172.201 C485.680,172.201 484.118,171.699 483.048,170.696 C481.979,169.694 481.444,168.280 481.444,166.457 C481.444,165.205 481.787,164.114 482.474,163.184 C483.161,162.254 484.154,161.531 485.455,161.015 C486.756,160.498 488.311,160.240 490.123,160.240 L493.642,160.240 L493.642,158.307 C493.642,157.116 493.280,156.192 492.557,155.536 C491.833,154.879 490.816,154.551 489.503,154.551 C488.676,154.551 487.959,154.651 487.351,154.852 C486.743,155.052 486.190,155.329 485.692,155.681 L485.309,158.435 L482.538,158.435 L482.538,153.913 C483.425,153.196 484.458,152.652 485.637,152.281 C486.816,151.910 488.123,151.725 489.557,151.725 C491.952,151.725 493.830,152.296 495.191,153.439 C496.553,154.581 497.234,156.216 497.234,158.343 L497.234,167.843 C497.234,168.098 497.236,168.347 497.243,168.590 C497.249,168.834 497.264,169.077 497.288,169.320 L499.203,169.520 L499.203,171.818 L494.043,171.818 C493.933,171.283 493.848,170.803 493.788,170.377 ZM493.642,162.701 L489.995,162.701 C488.342,162.701 487.102,163.096 486.276,163.886 C485.449,164.677 485.036,165.558 485.036,166.530 C485.036,167.393 485.303,168.053 485.838,168.508 C486.373,168.964 487.181,169.192 488.263,169.192 C489.454,169.192 490.542,168.907 491.527,168.335 C492.511,167.764 493.216,167.077 493.642,166.275 L493.642,162.701 ZM475.754,172.128 C474.296,172.128 473.138,171.699 472.281,170.842 C471.424,169.985 470.996,168.615 470.996,166.731 L470.996,154.752 L467.878,154.752 L467.878,152.090 L470.996,152.090 L470.996,147.331 L474.587,147.331 L474.587,152.090 L478.872,152.090 L478.872,154.752 L474.587,154.752 L474.587,166.731 C474.587,167.679 474.776,168.378 475.153,168.827 C475.529,169.277 476.034,169.502 476.666,169.502 C477.091,169.502 477.565,169.463 478.088,169.384 C478.611,169.305 479.018,169.235 479.310,169.174 L479.802,171.526 C479.279,171.684 478.638,171.824 477.879,171.945 C477.119,172.067 476.411,172.128 475.754,172.128 ZM454.448,155.599 C455.342,156.031 456.536,156.435 458.031,156.812 C460.827,157.505 462.945,158.529 464.385,159.884 C465.826,161.240 466.546,162.914 466.546,164.907 C466.546,166.330 466.163,167.591 465.397,168.691 C464.632,169.791 463.553,170.651 462.161,171.271 C460.769,171.891 459.131,172.201 457.247,172.201 C455.630,172.201 454.075,171.964 452.580,171.489 C451.084,171.015 449.656,170.286 448.295,169.301 L448.295,163.631 L451.084,163.631 L451.686,167.806 C452.476,168.293 453.333,168.670 454.257,168.937 C455.181,169.204 456.177,169.338 457.247,169.338 C458.463,169.338 459.493,169.153 460.338,168.782 C461.182,168.411 461.830,167.898 462.279,167.241 C462.729,166.585 462.954,165.819 462.954,164.944 C462.954,164.130 462.760,163.412 462.371,162.792 C461.981,162.172 461.340,161.629 460.447,161.160 C459.554,160.693 458.335,160.282 456.791,159.930 C454.968,159.504 453.427,158.936 452.169,158.225 C450.911,157.514 449.957,156.651 449.307,155.636 C448.656,154.621 448.331,153.457 448.331,152.144 C448.331,150.759 448.699,149.519 449.434,148.425 C450.170,147.331 451.194,146.468 452.507,145.836 C453.819,145.204 455.351,144.888 457.101,144.888 C458.961,144.888 460.605,145.170 462.033,145.735 C463.461,146.301 464.638,146.984 465.561,147.787 L465.561,153.092 L462.772,153.092 L462.170,149.300 C461.623,148.862 460.942,148.498 460.128,148.206 C459.313,147.914 458.305,147.768 457.101,147.768 C456.080,147.768 455.181,147.948 454.403,148.306 C453.625,148.665 453.017,149.166 452.580,149.810 C452.142,150.455 451.923,151.214 451.923,152.090 C451.923,152.855 452.121,153.524 452.516,154.095 C452.911,154.667 453.555,155.168 454.448,155.599 ZM436.206,169.520 L439.178,169.010 L439.178,146.200 L436.206,145.690 L436.206,143.374 L442.769,143.374 L442.769,169.010 L445.741,169.520 L445.741,171.818 L436.206,171.818 L436.206,169.520 ZM425.046,169.520 L428.018,169.010 L428.018,146.200 L425.046,145.690 L425.046,143.374 L431.610,143.374 L431.610,169.010 L434.582,169.520 L434.582,171.818 L425.046,171.818 L425.046,169.520 ZM417.734,168.900 C417.114,169.958 416.315,170.772 415.336,171.344 C414.358,171.915 413.231,172.201 411.954,172.201 C409.815,172.201 408.144,171.514 406.940,170.140 C405.737,168.767 405.135,166.628 405.135,163.722 L405.135,154.916 L402.874,154.405 L402.874,152.090 L405.135,152.090 L408.727,152.090 L408.727,163.759 C408.727,165.862 409.037,167.308 409.657,168.098 C410.277,168.888 411.243,169.283 412.556,169.283 C413.832,169.283 414.887,169.025 415.719,168.508 C416.552,167.992 417.181,167.259 417.606,166.311 L417.606,154.916 L414.963,154.405 L414.963,152.090 L417.606,152.090 L421.198,152.090 L421.198,169.010 L423.459,169.520 L423.459,171.818 L417.971,171.818 L417.734,168.900 ZM397.932,148.060 L387.813,148.060 L387.813,157.249 L397.531,157.249 L397.531,160.076 L387.813,160.076 L387.813,169.010 L390.785,169.520 L390.785,171.818 L381.249,171.818 L381.249,169.520 L384.221,169.010 L384.221,162.329 L387.878,158.672 L384.221,155.016 L384.221,148.097 L381.249,147.586 L381.249,145.270 L401.214,145.270 L401.214,151.652 L398.333,151.652 L397.932,148.060 ZM359.626,167.717 L367.567,159.776 L359.626,151.835 L359.626,144.507 L374.657,159.539 L359.626,174.570 L359.626,167.717 ZM353.613,108.172 L353.613,193.734 L400.783,193.734 L400.783,214.578 L326.516,214.578 L326.516,102.173 L347.615,102.173 L249.456,4.014 L250.259,3.211 L349.220,102.173 L353.613,102.173 L353.613,106.566 L372.187,125.140 C371.297,124.777 370.403,124.414 369.493,124.051 L353.613,108.172 ZM173.340,72.855 L245.818,0.376 L249.456,4.014 L180.615,72.855 L173.340,72.855 ZM153.668,70.219 L167.851,70.219 L167.851,71.868 L153.668,71.868 L153.668,70.219 ZM69.151,92.968 L126.879,92.968 L126.879,95.891 L69.151,95.891 L69.151,92.968 ZM52.422,74.208 L69.356,74.208 L69.356,75.857 L52.422,75.857 L52.422,74.208 ZM47.359,59.720 L53.727,59.720 L53.727,62.643 L47.359,62.643 L47.359,59.720 ZM18.140,57.348 L26.509,57.348 L26.509,59.516 L18.140,59.516 L18.140,57.348 ZM0.648,66.464 L3.083,66.464 L3.083,68.113 L0.648,68.113 L0.648,66.464 ZM107.057,159.539 L164.226,102.370 L164.226,102.173 L164.423,102.173 L240.857,25.739 L310.447,95.329 L308.214,95.329 L315.058,102.173 L321.569,102.173 L321.569,123.095 L273.472,123.095 L273.472,148.957 L317.168,148.957 L317.168,169.801 L273.472,169.801 L273.472,214.578 L246.375,214.578 L246.375,102.173 L310.492,102.173 L303.647,95.329 L303.119,95.329 L244.794,37.003 L179.623,102.173 L241.814,102.173 L241.814,123.095 L191.324,123.095 L191.324,146.795 L233.939,146.795 L233.939,166.868 L191.324,166.868 L191.324,193.734 L241.659,193.734 L241.659,214.578 L187.117,214.578 L248.101,275.563 L245.818,277.846 L182.550,214.578 L169.454,214.578 L241.109,286.234 L249.941,277.402 L248.101,275.563 L318.371,205.293 L322.694,205.285 L304.570,223.409 L310.787,223.409 L240.857,293.339 L114.657,167.139 L108.606,173.190 L243.703,308.287 L242.900,309.090 L105.646,171.836 L112.500,164.981 L107.057,159.539 ZM175.308,102.173 L242.636,34.845 L241.109,33.318 L172.255,102.173 L175.308,102.173 ZM164.226,209.351 L164.226,117.570 L118.336,163.460 L164.226,209.351 ZM116.179,161.303 L164.226,113.255 L164.226,110.201 L114.652,159.776 L116.179,161.303 ZM319.814,239.452 L247.341,311.925 L243.703,308.287 L312.538,239.452 L319.814,239.452 ZM466.126,240.482 L334.035,240.482 L334.035,235.889 L466.126,235.889 L466.126,240.482 ZM484.210,276.231 L461.922,276.231 L461.922,273.639 L484.210,273.639 L484.210,276.231 ZM590.096,248.665 L575.395,248.665 L575.395,245.258 L590.096,245.258 L590.096,248.665 ZM617.582,235.889 L613.756,235.889 L613.756,233.297 L617.582,233.297 L617.582,235.889 Z"/>
</svg>