<svg 
 xmlns="http://www.w3.org/2000/svg"
 xmlns:xlink="http://www.w3.org/1999/xlink"
 width="667px" height="660px">
<path fill-rule="evenodd"  fill="rgb(255, 0, 110)"
 d="M642.122,38.750 L637.408,34.036 L644.367,27.076 L649.081,31.790 L642.122,38.750 ZM588.243,132.346 L612.162,108.426 L618.358,114.622 L594.438,138.541 L588.243,132.346 ZM506.181,344.732 L546.718,304.195 L551.431,308.909 L510.895,349.446 L506.181,344.732 ZM524.339,185.654 L542.540,167.453 L547.254,172.167 L529.053,190.368 L524.339,185.654 ZM331.715,5.723 L337.144,0.294 L508.979,172.129 L498.142,172.150 L331.715,5.723 ZM154.362,172.817 L326.586,0.594 L331.715,5.723 L164.641,172.797 L154.362,172.817 ZM429.921,241.523 L434.635,246.237 L412.794,268.078 L408.080,263.364 L429.921,241.523 ZM398.106,290.046 L402.820,294.761 L187.355,510.225 L328.494,651.364 L326.586,653.273 L185.447,512.134 L137.219,560.361 L132.505,555.647 L180.733,507.420 L36.696,363.383 C38.808,364.243 40.938,365.103 43.094,365.963 L182.641,505.511 L398.106,290.046 ZM509.470,487.687 L337.144,660.013 L328.494,651.364 L492.171,487.687 L509.470,487.687 Z"/>
</svg>