<svg 
 xmlns="http://www.w3.org/2000/svg"
 xmlns:xlink="http://www.w3.org/1999/xlink"
 width="638px" height="637px">
<path fill-rule="evenodd"  fill="rgb(20, 252, 255)"
 d="M579.864,103.141 L595.274,87.730 L599.988,92.444 L584.578,107.855 L579.864,103.141 ZM539.202,189.601 L571.572,157.231 L577.768,163.426 L545.397,195.797 L539.202,189.601 ZM474.838,246.715 L479.553,251.429 L452.901,278.080 L448.187,273.366 L474.838,246.715 ZM491.554,380.347 L451.017,420.883 L446.303,416.169 L486.840,375.632 L491.554,380.347 ZM359.178,327.621 L354.464,322.906 L376.305,301.066 L381.019,305.780 L359.178,327.621 ZM318.915,636.251 L312.956,630.292 L617.744,325.504 L307.911,15.671 L157.333,166.250 L152.665,166.250 L318.915,-0.001 L637.041,318.125 L318.915,636.251 ZM329.484,385.290 L89.237,625.538 L81.706,618.007 L321.954,377.759 L329.484,385.290 Z"/>
</svg>