<svg 
 xmlns="http://www.w3.org/2000/svg"
 xmlns:xlink="http://www.w3.org/1999/xlink"
 width="848px" height="726px">
<path fill-rule="evenodd"  fill="rgb(255, 0, 110)"
 d="M512.222,33.970 L517.651,28.541 L689.486,200.376 L678.649,200.397 L512.222,33.970 ZM387.591,148.342 L507.093,28.840 L512.222,33.970 L392.720,153.472 L387.591,148.342 ZM345.148,201.044 L334.869,201.064 L386.218,149.715 L391.347,154.845 L345.148,201.044 ZM243.496,6.994 L244.869,5.621 L387.591,148.342 L386.218,149.715 L243.496,6.994 ZM113.318,124.729 L237.275,0.772 L243.496,6.994 L125.761,124.729 L113.318,124.729 ZM661.507,527.105 L672.679,515.933 L689.977,515.933 L670.156,535.754 L661.507,527.105 ZM202.039,109.440 L8.085,303.393 L200.113,495.421 L198.972,496.562 L3.878,301.468 L198.972,106.373 L202.039,109.440 ZM307.809,208.719 L301.318,208.719 L202.039,109.440 L205.284,106.194 L307.809,208.719 ZM308.313,397.562 L267.633,438.242 L270.990,441.599 L269.082,443.508 L265.725,440.151 L237.823,468.053 L241.180,471.410 L237.275,475.315 L233.918,471.958 L205.284,500.592 L200.113,495.421 L297.972,397.562 L308.313,397.562 ZM272.771,447.198 L244.869,475.100 L241.180,471.410 L269.082,443.508 L272.771,447.198 ZM362.340,532.949 L512.129,383.159 L515.337,386.367 L351.269,550.434 L518.053,717.218 L682.121,553.150 L683.377,554.407 L512.129,725.654 L340.882,554.407 L360.431,534.857 L272.771,447.198 L274.680,445.289 L362.340,532.949 Z"/>
</svg>