<svg 
 xmlns="http://www.w3.org/2000/svg"
 xmlns:xlink="http://www.w3.org/1999/xlink"
 width="690px" height="718px">
<path fill-rule="evenodd"  fill="rgb(0, 255, 240)"
 d="M690.000,203.823 L690.000,230.500 L655.528,196.028 L508.375,343.181 L409.266,244.071 L405.836,247.500 L401.168,247.500 L406.932,241.737 L337.128,171.933 L508.375,0.685 L679.623,171.933 L668.866,182.690 L690.000,203.823 ZM503.763,325.974 L644.618,185.118 L556.418,96.918 L415.563,237.773 L503.763,325.974 ZM503.763,12.269 L346.911,169.121 L413.229,235.439 L567.423,81.246 L657.957,171.780 L660.615,169.121 L503.763,12.269 ZM446.087,327.990 L240.794,122.696 L242.167,121.323 L450.695,329.852 C449.172,329.231 447.643,328.610 446.087,327.990 ZM110.616,240.431 L234.572,116.475 L240.794,122.696 L123.059,240.431 L110.616,240.431 ZM238.477,587.113 L358.656,466.934 L366.049,466.920 L242.167,590.802 L238.477,587.113 ZM110.970,467.415 L118.764,467.400 L238.477,587.113 L234.572,591.017 L110.970,467.415 ZM232.376,223.944 L5.235,451.085 L230.121,675.970 L228.785,677.307 L0.308,448.830 L228.785,220.353 L232.376,223.944 ZM356.252,340.219 L348.650,340.219 L232.376,223.944 L236.177,220.143 L356.252,340.219 ZM356.828,561.375 L236.177,682.026 L230.121,675.970 L344.716,561.375 L356.828,561.375 ZM690.000,594.920 L567.423,717.497 L561.464,711.538 L690.000,583.002 L690.000,594.920 Z"/>
</svg>