<svg 
 xmlns="http://www.w3.org/2000/svg"
 xmlns:xlink="http://www.w3.org/1999/xlink"
 width="690px" height="700px">
<path fill-rule="evenodd"  fill="rgb(255, 255, 255)"
 d="M690.000,182.094 L687.376,182.094 L511.509,6.227 L517.260,0.476 L690.000,173.216 L690.000,182.094 ZM690.000,206.443 L690.000,210.260 L498.738,18.998 L346.141,171.595 L450.696,276.149 C449.172,275.529 447.643,274.908 446.087,274.288 L344.768,172.968 L298.963,218.773 L356.252,276.062 L348.650,276.062 L295.162,222.574 L167.841,349.895 L294.916,476.971 L358.656,413.232 L366.049,413.217 L298.606,480.661 L329.940,511.995 L330.978,510.957 L308.427,488.406 L319.284,488.406 L336.407,505.528 L344.716,497.219 L356.828,497.219 L342.462,511.584 L485.317,654.439 L479.889,659.868 L337.033,517.013 L335.996,518.050 L508.098,690.152 L506.076,692.174 L333.974,520.072 L236.177,617.869 L230.121,611.814 L327.918,514.017 L296.584,482.683 L242.167,537.100 L238.477,533.410 L292.894,478.993 L160.385,346.484 L289.728,217.141 L232.376,159.788 L236.177,155.987 L293.529,213.340 L339.334,167.535 L334.568,162.768 L324.836,172.500 L307.538,172.500 L325.919,154.119 L240.794,68.994 L242.167,67.621 L327.292,152.746 L479.889,0.149 L488.538,8.798 L335.941,161.395 L340.708,166.161 L493.304,13.565 L488.538,8.798 L490.447,6.889 L495.213,11.656 L506.076,0.793 L511.509,6.227 L500.647,17.089 L690.000,206.443 ZM163.691,301.628 L167.924,297.394 L182.229,311.699 L189.598,304.330 L192.855,307.586 L181.252,319.189 L163.691,301.628 ZM158.672,313.183 L162.713,317.224 L169.540,310.397 L172.796,313.654 L165.969,320.481 L172.965,327.476 L168.731,331.710 L151.170,314.148 L162.918,302.401 L166.187,305.669 L158.672,313.183 ZM145.838,326.018 L149.541,329.721 L156.199,323.063 L159.335,326.199 L152.677,332.856 L156.874,337.054 L164.738,329.190 L167.995,332.446 L155.897,344.544 L138.336,326.983 L150.458,314.861 L153.726,318.130 L145.838,326.018 ZM230.121,611.814 L228.785,613.150 L0.308,384.674 L228.785,156.197 L232.376,159.788 L5.235,386.928 L230.121,611.814 ZM110.970,413.712 L118.764,413.697 L238.477,533.410 L234.572,537.315 L110.970,413.712 ZM690.000,460.015 L490.447,659.568 L485.317,654.439 L690.000,449.757 L690.000,460.015 ZM690.000,516.750 L690.000,526.574 L517.260,699.314 L508.098,690.152 L681.500,516.750 L690.000,516.750 ZM110.616,186.729 L234.572,62.772 L240.794,68.994 L123.059,186.729 L110.616,186.729 Z"/>
</svg>