<svg 
 xmlns="http://www.w3.org/2000/svg"
 xmlns:xlink="http://www.w3.org/1999/xlink"
 width="184px" height="119px">
<path fill-rule="evenodd"  fill="rgb(255, 255, 255)"
 d="M175.458,104.791 L175.458,103.810 L183.893,103.810 L183.893,104.791 L175.458,104.791 ZM173.933,91.795 L179.479,91.795 L179.479,93.533 L173.933,93.533 L173.933,91.795 ZM158.441,87.369 L162.985,87.369 L162.985,88.350 L158.441,88.350 L158.441,87.369 ZM124.209,38.913 L132.194,38.913 L95.043,1.762 L95.347,1.458 L132.802,38.913 L134.465,38.913 L134.465,40.576 L141.498,47.609 C141.167,47.474 140.824,47.339 140.486,47.204 L134.465,41.183 L134.465,73.567 L152.318,73.567 L152.318,81.456 L124.209,81.456 L124.209,38.913 ZM66.234,27.817 L93.666,0.385 L95.043,1.762 L68.988,27.817 L66.234,27.817 ZM136.750,54.946 L142.429,60.625 L136.750,66.304 L136.750,63.710 L139.746,60.715 L136.750,57.719 L136.750,54.946 ZM58.789,26.819 L64.157,26.819 L64.157,27.443 L58.789,27.443 L58.789,26.819 ZM26.801,35.429 L48.649,35.429 L48.649,36.535 L26.801,36.535 L26.801,35.429 ZM20.469,28.329 L26.878,28.329 L26.878,28.953 L20.469,28.953 L20.469,28.329 ZM18.553,22.845 L20.963,22.845 L20.963,23.952 L18.553,23.952 L18.553,22.845 ZM7.494,21.948 L10.661,21.948 L10.661,22.768 L7.494,22.768 L7.494,21.948 ZM0.874,25.398 L1.795,25.398 L1.795,26.022 L0.874,26.022 L0.874,25.398 ZM41.148,60.625 L62.785,38.988 L62.785,38.913 L62.860,38.913 L91.788,9.984 L118.117,36.312 L117.272,36.312 L119.872,38.913 L122.336,38.913 L122.336,46.831 L104.133,46.831 L104.133,56.620 L120.671,56.620 L120.671,64.509 L104.133,64.509 L104.133,81.456 L93.877,81.456 L93.877,38.913 L118.144,38.913 L115.543,36.312 L115.344,36.312 L93.278,14.247 L68.612,38.913 L92.151,38.913 L92.151,46.831 L73.041,46.831 L73.041,55.802 L89.170,55.802 L89.170,63.399 L73.041,63.399 L73.041,73.567 L92.092,73.567 L92.092,81.456 L71.449,81.456 L94.530,104.538 L93.666,105.402 L69.720,81.456 L64.763,81.456 L91.884,108.577 L95.226,105.234 L94.530,104.538 L121.126,77.942 L122.762,77.939 L115.920,84.781 L118.273,84.781 L91.788,111.266 L44.024,63.501 L41.734,65.792 L92.865,116.924 L92.562,117.227 L40.613,65.279 L43.208,62.685 L41.148,60.625 ZM66.979,38.913 L92.462,13.430 L91.884,12.853 L65.824,38.913 L66.979,38.913 ZM62.785,79.478 L62.785,44.740 L45.416,62.109 L62.785,79.478 ZM44.600,61.293 L62.785,43.107 L62.785,41.951 L44.022,60.715 L44.600,61.293 ZM121.668,90.875 L94.242,118.300 L92.865,116.924 L118.914,90.875 L121.668,90.875 ZM149.937,91.260 L127.055,91.260 L127.055,89.522 L149.937,89.522 L149.937,91.260 Z"/>
</svg>