<svg 
 xmlns="http://www.w3.org/2000/svg"
 xmlns:xlink="http://www.w3.org/1999/xlink"
 width="697px" height="317px">
<path fill-rule="evenodd"  fill="rgb(211, 2, 26)"
 d="M696.139,154.159 L693.641,154.014 C692.693,153.953 691.897,154.169 691.253,154.661 C690.609,155.153 690.110,155.813 689.758,156.639 L689.758,167.816 L692.730,168.326 L692.730,170.624 L683.194,170.624 L683.194,168.326 L686.166,167.816 L686.166,153.722 L683.194,153.211 L683.194,150.896 L689.375,150.896 L689.685,153.412 L689.721,153.758 C690.280,152.749 690.970,151.959 691.791,151.388 C692.611,150.817 693.550,150.531 694.608,150.531 C694.984,150.531 695.370,150.565 695.766,150.631 C696.160,150.698 696.443,150.762 696.613,150.823 L696.139,154.159 ZM668.333,161.690 C668.358,162.954 668.579,164.075 668.999,165.054 C669.418,166.032 670.023,166.801 670.813,167.360 C671.603,167.919 672.551,168.199 673.657,168.199 C674.873,168.199 675.939,168.026 676.857,167.679 C677.775,167.333 678.568,166.856 679.237,166.248 L680.641,168.582 C679.935,169.263 679.002,169.837 677.842,170.305 C676.681,170.772 675.286,171.007 673.657,171.007 C671.834,171.007 670.248,170.590 668.899,169.758 C667.549,168.925 666.507,167.767 665.772,166.284 C665.036,164.801 664.668,163.088 664.668,161.143 L664.668,160.340 C664.668,158.469 665.054,156.794 665.826,155.317 C666.598,153.840 667.625,152.673 668.908,151.816 C670.190,150.959 671.591,150.531 673.110,150.531 C674.885,150.531 676.371,150.896 677.568,151.625 C678.765,152.354 679.668,153.378 680.276,154.697 C680.884,156.016 681.188,157.569 681.188,159.356 L681.188,161.598 L668.388,161.598 L668.333,161.690 ZM668.497,158.791 L677.596,158.791 L677.596,158.317 C677.596,157.368 677.428,156.521 677.094,155.773 C676.760,155.025 676.262,154.436 675.599,154.004 C674.937,153.573 674.107,153.357 673.110,153.357 C672.308,153.357 671.579,153.591 670.922,154.059 C670.266,154.527 669.725,155.162 669.300,155.964 C668.874,156.767 668.595,157.678 668.461,158.699 L668.497,158.791 ZM653.345,168.326 L656.317,167.816 L656.317,158.244 C656.317,156.505 655.973,155.272 655.287,154.542 C654.600,153.813 653.552,153.448 652.142,153.448 C651.108,153.448 650.194,153.698 649.398,154.196 C648.601,154.694 647.966,155.375 647.492,156.238 L647.492,167.816 L650.464,168.326 L650.464,170.624 L640.928,170.624 L640.928,168.326 L643.900,167.816 L643.900,153.722 L640.928,153.211 L640.928,150.896 L647.109,150.896 L647.365,153.831 C648.021,152.786 648.844,151.975 649.835,151.397 C650.826,150.820 651.953,150.531 653.217,150.531 C655.344,150.531 656.992,151.154 658.159,152.400 C659.326,153.646 659.909,155.570 659.909,158.171 L659.909,167.816 L662.881,168.326 L662.881,170.624 L653.345,170.624 L653.345,168.326 ZM637.445,170.369 C637.445,172.070 637.126,173.535 636.488,174.763 C635.850,175.990 634.920,176.935 633.698,177.598 C632.477,178.260 630.991,178.592 629.240,178.592 C628.292,178.592 627.265,178.461 626.159,178.200 C625.053,177.938 624.080,177.583 623.242,177.133 L624.172,174.343 C624.840,174.696 625.630,174.987 626.542,175.218 C627.454,175.449 628.341,175.565 629.204,175.565 C630.808,175.565 631.984,175.115 632.732,174.216 C633.480,173.316 633.853,172.034 633.853,170.369 L633.853,168.491 C633.209,169.317 632.437,169.943 631.538,170.369 C630.638,170.794 629.605,171.007 628.438,171.007 C626.834,171.007 625.448,170.609 624.281,169.812 C623.114,169.016 622.218,167.904 621.592,166.476 C620.965,165.048 620.653,163.392 620.653,161.507 L620.653,161.124 C620.653,159.009 620.965,157.156 621.592,155.563 C622.218,153.971 623.114,152.734 624.281,151.853 C625.448,150.972 626.846,150.531 628.475,150.531 C629.714,150.531 630.802,150.774 631.738,151.260 C632.674,151.747 633.458,152.452 634.090,153.375 L634.419,150.896 L635.494,150.896 L637.445,150.896 L639.888,150.896 L639.888,153.193 L637.445,153.714 L637.445,170.369 ZM633.853,156.183 C633.391,155.345 632.790,154.679 632.048,154.187 C631.307,153.694 630.413,153.448 629.368,153.448 C628.225,153.448 627.274,153.776 626.515,154.433 C625.755,155.089 625.186,155.992 624.810,157.140 C624.433,158.289 624.245,159.617 624.245,161.124 L624.245,161.507 C624.245,163.489 624.664,165.081 625.503,166.284 C626.341,167.488 627.618,168.089 629.332,168.089 C630.413,168.089 631.319,167.843 632.048,167.351 C632.778,166.859 633.379,166.163 633.853,165.263 L633.853,156.183 ZM609.311,168.326 L612.283,167.816 L612.283,153.722 L609.311,153.211 L609.311,150.896 L615.875,150.896 L615.875,167.816 L618.847,168.326 L618.847,170.624 L609.311,170.624 L609.311,168.326 ZM612.101,142.180 L615.875,142.180 L615.875,146.027 L612.101,146.027 L612.101,142.180 ZM597.313,158.180 C597.884,158.453 598.723,158.724 599.829,158.991 C602.576,159.636 604.494,160.456 605.582,161.453 C606.669,162.449 607.213,163.677 607.213,165.136 C607.213,166.801 606.596,168.196 605.363,169.320 C604.129,170.445 602.187,171.007 599.537,171.007 C598.212,171.007 596.972,170.873 595.818,170.606 C594.663,170.338 593.435,169.925 592.135,169.366 L592.098,164.680 L594.815,164.680 L595.490,167.506 C596.170,167.786 596.830,167.989 597.468,168.117 C598.106,168.244 598.796,168.308 599.537,168.308 C600.996,168.308 602.041,168.029 602.673,167.469 C603.305,166.911 603.622,166.218 603.622,165.391 C603.622,164.613 603.302,163.954 602.664,163.413 C602.026,162.872 600.868,162.413 599.191,162.036 C596.808,161.489 595.055,160.757 593.931,159.839 C592.806,158.921 592.244,157.697 592.244,156.165 C592.244,155.096 592.554,154.138 593.174,153.293 C593.794,152.449 594.657,151.777 595.763,151.279 C596.869,150.780 598.158,150.531 599.629,150.531 C601.124,150.531 602.403,150.701 603.467,151.042 C604.530,151.382 605.457,151.838 606.247,152.409 L606.429,156.913 L603.731,156.913 L603.147,154.287 C602.722,153.971 602.218,153.728 601.634,153.558 C601.051,153.388 600.382,153.302 599.629,153.302 C598.510,153.302 597.602,153.564 596.903,154.086 C596.204,154.609 595.854,155.266 595.854,156.056 C595.854,156.518 595.955,156.919 596.155,157.259 C596.356,157.599 596.741,157.906 597.313,158.180 ZM576.654,161.690 C576.678,162.954 576.900,164.075 577.320,165.054 C577.739,166.032 578.344,166.801 579.134,167.360 C579.924,167.919 580.872,168.199 581.978,168.199 C583.194,168.199 584.260,168.026 585.178,167.679 C586.096,167.333 586.889,166.856 587.558,166.248 L588.961,168.582 C588.256,169.263 587.323,169.837 586.163,170.305 C585.002,170.772 583.607,171.007 581.978,171.007 C580.155,171.007 578.569,170.590 577.219,169.758 C575.870,168.925 574.828,167.767 574.092,166.284 C573.357,164.801 572.989,163.088 572.989,161.143 L572.989,160.340 C572.989,158.469 573.375,156.794 574.147,155.317 C574.919,153.840 575.946,152.673 577.229,151.816 C578.511,150.959 579.912,150.531 581.431,150.531 C583.206,150.531 584.692,150.896 585.889,151.625 C587.086,152.354 587.989,153.378 588.597,154.697 C589.205,156.016 589.508,157.569 589.508,159.356 L589.508,161.598 L576.709,161.598 L576.654,161.690 ZM576.818,158.791 L585.917,158.791 L585.917,158.317 C585.917,157.368 585.749,156.521 585.415,155.773 C585.081,155.025 584.582,154.436 583.920,154.004 C583.257,153.573 582.428,153.357 581.431,153.357 C580.629,153.357 579.900,153.591 579.243,154.059 C578.587,154.527 578.046,155.162 577.621,155.964 C577.195,156.767 576.915,157.678 576.782,158.699 L576.818,158.791 ZM565.814,168.919 C564.094,170.056 562.061,170.624 559.715,170.624 L549.140,170.624 L549.140,168.326 L552.112,167.816 L552.112,146.903 L549.140,146.392 L549.140,144.077 L552.112,144.077 L559.533,144.077 C561.879,144.077 563.924,144.636 565.668,145.754 C567.412,146.872 568.771,148.410 569.743,150.367 C570.716,152.324 571.202,154.561 571.202,157.077 L571.202,157.642 C571.202,160.097 570.734,162.307 569.798,164.270 C568.862,166.233 567.534,167.783 565.814,168.919 ZM567.610,157.040 C567.610,155.108 567.285,153.378 566.634,151.853 C565.984,150.328 565.057,149.121 563.854,148.234 C562.651,147.347 561.210,146.903 559.533,146.903 L555.704,146.903 L555.704,167.816 L559.533,167.816 C561.210,167.816 562.651,167.357 563.854,166.439 C565.057,165.522 565.984,164.294 566.634,162.756 C567.285,161.219 567.610,159.514 567.610,157.642 L567.610,157.040 ZM538.462,243.895 L548.469,243.895 L548.469,246.486 L538.462,246.486 L538.462,243.895 ZM530.249,168.326 L532.255,168.089 L532.200,168.016 L527.210,161.576 L524.141,164.660 L524.141,167.816 L527.113,168.326 L527.113,170.624 L517.577,170.624 L517.577,168.326 L520.549,167.816 L520.549,145.006 L517.577,144.496 L517.577,142.180 L524.141,142.180 L524.141,160.511 L531.124,153.558 L531.215,153.448 L529.100,153.211 L529.100,150.896 L537.597,150.896 L537.597,153.211 L535.063,153.685 L529.515,159.260 L536.321,167.889 L539.165,168.326 L539.165,170.624 L530.249,170.624 L530.249,168.326 ZM512.116,170.104 C510.991,170.706 509.609,171.007 507.968,171.007 C506.181,171.007 504.625,170.590 503.300,169.758 C501.975,168.925 500.948,167.767 500.219,166.284 C499.489,164.801 499.125,163.088 499.125,161.143 L499.125,160.377 C499.125,158.505 499.477,156.828 500.182,155.345 C500.887,153.862 501.902,152.689 503.227,151.826 C504.552,150.963 506.132,150.531 507.968,150.531 C509.560,150.531 510.955,150.793 512.152,151.315 C513.349,151.838 514.355,152.555 515.170,153.467 L515.261,158.207 L512.453,158.207 L511.833,154.761 C511.420,154.336 510.903,153.995 510.283,153.740 C509.663,153.485 508.934,153.357 508.095,153.357 C507.025,153.357 506.086,153.673 505.278,154.305 C504.470,154.937 503.841,155.782 503.391,156.840 C502.941,157.897 502.717,159.076 502.717,160.377 L502.717,161.143 C502.717,162.577 502.926,163.823 503.346,164.880 C503.765,165.938 504.367,166.756 505.151,167.333 C505.935,167.910 506.867,168.199 507.949,168.199 C509.165,168.199 510.174,167.865 510.976,167.196 C511.778,166.528 512.271,165.610 512.453,164.443 L515.680,164.443 L515.717,164.552 C515.656,165.683 515.321,166.740 514.714,167.725 C514.106,168.709 513.240,169.502 512.116,170.104 ZM485.139,233.297 L497.147,233.297 L497.147,235.889 L485.139,235.889 L485.139,233.297 ZM491.594,169.183 C491.533,168.758 491.490,168.333 491.466,167.907 C490.773,168.794 489.907,169.533 488.868,170.122 C487.829,170.712 486.719,171.007 485.540,171.007 C483.486,171.007 481.924,170.505 480.854,169.502 C479.785,168.500 479.250,167.087 479.250,165.263 C479.250,164.011 479.593,162.920 480.280,161.990 C480.967,161.061 481.960,160.338 483.261,159.821 C484.562,159.304 486.117,159.046 487.929,159.046 L491.448,159.046 L491.448,157.113 C491.448,155.922 491.086,154.998 490.363,154.342 C489.640,153.685 488.622,153.357 487.309,153.357 C486.482,153.357 485.765,153.457 485.157,153.658 C484.549,153.859 483.996,154.135 483.498,154.488 L483.115,157.241 L480.344,157.241 L480.344,152.719 C481.231,152.002 482.264,151.458 483.444,151.087 C484.622,150.716 485.929,150.531 487.364,150.531 C489.758,150.531 491.636,151.103 492.998,152.245 C494.359,153.388 495.040,155.023 495.040,157.150 L495.040,166.649 C495.040,166.904 495.043,167.154 495.049,167.397 C495.055,167.640 495.070,167.883 495.094,168.126 L497.009,168.326 L497.009,170.624 L491.849,170.624 C491.740,170.089 491.654,169.609 491.594,169.183 ZM491.448,161.507 L487.801,161.507 C486.148,161.507 484.908,161.902 484.082,162.692 C483.255,163.483 482.842,164.364 482.842,165.336 C482.842,166.199 483.109,166.859 483.644,167.314 C484.179,167.770 484.987,167.998 486.069,167.998 C487.260,167.998 488.348,167.713 489.333,167.141 C490.317,166.570 491.022,165.883 491.448,165.081 L491.448,161.507 ZM473.561,170.934 C472.102,170.934 470.944,170.505 470.087,169.648 C469.230,168.791 468.802,167.421 468.802,165.537 L468.802,153.558 L465.684,153.558 L465.684,150.896 L468.802,150.896 L468.802,146.137 L472.394,146.137 L472.394,150.896 L476.678,150.896 L476.678,153.558 L472.394,153.558 L472.394,165.537 C472.394,166.485 472.582,167.184 472.959,167.634 C473.335,168.083 473.840,168.308 474.472,168.308 C474.897,168.308 475.372,168.269 475.894,168.190 C476.417,168.111 476.824,168.041 477.116,167.980 L477.608,170.332 C477.085,170.490 476.444,170.630 475.685,170.751 C474.925,170.873 474.217,170.934 473.561,170.934 ZM452.255,154.406 C453.148,154.837 454.342,155.241 455.837,155.618 C458.633,156.311 460.751,157.335 462.192,158.690 C463.632,160.046 464.352,161.720 464.352,163.713 C464.352,165.136 463.969,166.397 463.203,167.497 C462.438,168.597 461.359,169.457 459.967,170.077 C458.575,170.697 456.937,171.007 455.053,171.007 C453.437,171.007 451.881,170.770 450.386,170.296 C448.891,169.822 447.462,169.092 446.101,168.108 L446.101,162.437 L448.891,162.437 L449.492,166.613 C450.282,167.099 451.139,167.476 452.063,167.743 C452.987,168.010 453.984,168.144 455.053,168.144 C456.269,168.144 457.299,167.959 458.144,167.588 C458.988,167.217 459.636,166.704 460.086,166.047 C460.535,165.391 460.760,164.625 460.760,163.750 C460.760,162.936 460.566,162.218 460.177,161.598 C459.788,160.979 459.147,160.435 458.253,159.967 C457.360,159.499 456.141,159.089 454.597,158.736 C452.774,158.311 451.233,157.742 449.975,157.031 C448.717,156.320 447.763,155.457 447.113,154.442 C446.462,153.427 446.137,152.263 446.137,150.950 C446.137,149.565 446.505,148.325 447.240,147.231 C447.976,146.137 449.000,145.274 450.313,144.642 C451.625,144.010 453.157,143.694 454.907,143.694 C456.767,143.694 458.411,143.976 459.839,144.541 C461.268,145.107 462.444,145.790 463.368,146.593 L463.368,151.898 L460.578,151.898 L459.976,148.106 C459.429,147.668 458.748,147.304 457.934,147.012 C457.120,146.720 456.111,146.574 454.907,146.574 C453.886,146.574 452.987,146.754 452.209,147.112 C451.431,147.471 450.823,147.972 450.386,148.617 C449.948,149.261 449.729,150.020 449.729,150.896 C449.729,151.661 449.927,152.330 450.322,152.901 C450.717,153.473 451.361,153.974 452.255,154.406 ZM434.012,168.326 L436.984,167.816 L436.984,145.006 L434.012,144.496 L434.012,142.180 L440.576,142.180 L440.576,167.816 L443.548,168.326 L443.548,170.624 L434.012,170.624 L434.012,168.326 ZM422.852,168.326 L425.824,167.816 L425.824,145.006 L422.852,144.496 L422.852,142.180 L429.416,142.180 L429.416,167.816 L432.388,168.326 L432.388,170.624 L422.852,170.624 L422.852,168.326 ZM415.540,167.706 C414.920,168.764 414.121,169.579 413.143,170.150 C412.164,170.721 411.037,171.007 409.760,171.007 C407.621,171.007 405.950,170.320 404.746,168.946 C403.543,167.573 402.941,165.434 402.941,162.528 L402.941,153.722 L400.680,153.211 L400.680,150.896 L402.941,150.896 L406.533,150.896 L406.533,162.565 C406.533,164.668 406.843,166.114 407.463,166.904 C408.083,167.695 409.049,168.089 410.362,168.089 C411.638,168.089 412.693,167.831 413.525,167.314 C414.358,166.798 414.987,166.066 415.413,165.117 L415.413,153.722 L412.769,153.211 L412.769,150.896 L415.413,150.896 L419.004,150.896 L419.004,167.816 L421.265,168.326 L421.265,170.624 L415.777,170.624 L415.540,167.706 ZM395.738,146.866 L385.619,146.866 L385.619,156.056 L395.337,156.056 L395.337,158.882 L385.619,158.882 L385.619,167.816 L388.591,168.326 L388.591,170.624 L379.055,170.624 L379.055,168.326 L382.027,167.816 L382.027,161.135 L385.684,157.478 L382.027,153.822 L382.027,146.903 L379.055,146.392 L379.055,144.077 L399.020,144.077 L399.020,150.458 L396.140,150.458 L395.738,146.866 ZM354.596,169.536 L368.673,155.460 L369.654,156.441 L354.596,171.499 L354.596,169.536 ZM348.611,107.266 L348.611,190.636 L395.781,190.636 L395.781,211.480 L321.513,211.480 L321.513,99.075 L340.420,99.075 L245.358,4.014 L246.161,3.211 L342.025,99.075 L348.611,99.075 L348.611,105.661 L368.090,125.140 C367.199,124.777 366.305,124.414 365.395,124.051 L348.611,107.266 ZM169.242,72.855 L241.721,0.376 L245.358,4.014 L176.518,72.855 L169.242,72.855 ZM151.824,71.493 L166.007,71.493 L166.007,73.142 L151.824,73.142 L151.824,71.493 ZM70.698,92.968 L128.426,92.968 L128.426,94.617 L70.698,94.617 L70.698,92.968 ZM63.262,74.208 L70.903,74.208 L70.903,75.857 L63.262,75.857 L63.262,74.208 ZM48.907,59.720 L55.274,59.720 L55.274,61.370 L48.907,61.370 L48.907,59.720 ZM20.487,57.348 L28.856,57.348 L28.856,59.516 L20.487,59.516 L20.487,57.348 ZM0.622,66.464 L3.057,66.464 L3.057,68.113 L0.622,68.113 L0.622,66.464 ZM102.055,156.441 L159.224,99.273 L159.224,99.075 L159.421,99.075 L235.855,22.642 L238.361,25.148 L164.433,99.075 L175.857,99.075 L235.705,39.228 L237.862,41.385 L180.172,99.075 L236.811,99.075 L236.811,119.997 L186.321,119.997 L186.321,143.698 L228.936,143.698 L228.936,163.770 L186.321,163.770 L186.321,190.636 L236.656,190.636 L236.656,211.480 L179.922,211.480 L244.004,275.563 L241.721,277.846 L175.355,211.480 L168.314,211.480 L240.483,283.650 L303.820,220.313 L305.783,220.313 L235.855,290.241 L112.430,166.817 L101.411,177.837 L236.508,312.934 L235.705,313.737 L98.451,176.482 L110.273,164.660 L102.055,156.441 ZM159.224,202.390 L159.224,120.024 L118.040,161.207 L159.224,202.390 ZM115.883,159.050 L159.224,115.709 L159.224,104.285 L110.171,153.338 L115.883,159.050 ZM300.119,99.075 L316.566,99.075 L316.566,119.997 L268.470,119.997 L268.470,145.859 L312.165,145.859 L312.165,166.704 L268.470,166.704 L268.470,211.480 L241.372,211.480 L241.372,99.075 L295.553,99.075 L237.862,41.385 L240.146,39.102 L300.119,99.075 ZM318.596,205.285 L246.161,277.720 L244.004,275.563 L314.273,205.293 L318.596,205.285 ZM312.639,244.078 L240.146,316.571 L236.508,312.934 L305.363,244.078 L312.639,244.078 ZM475.062,240.482 L329.032,240.482 L329.032,237.890 L475.062,237.890 L475.062,240.482 ZM484.536,274.229 L462.248,274.229 L462.248,271.638 L484.536,271.638 L484.536,274.229 ZM583.835,250.214 L570.684,250.214 L570.684,246.807 L583.835,246.807 L583.835,250.214 ZM615.052,235.889 L611.225,235.889 L611.225,233.297 L615.052,233.297 L615.052,235.889 Z"/>
</svg>