<svg 
 xmlns="http://www.w3.org/2000/svg"
 xmlns:xlink="http://www.w3.org/1999/xlink"
 width="700px" height="319px">
<path fill-rule="evenodd"  fill="rgb(0, 255, 240)"
 d="M699.527,159.547 L697.029,159.401 C696.081,159.341 695.285,159.556 694.641,160.049 C693.996,160.541 693.498,161.200 693.146,162.027 L693.146,173.204 L696.118,173.714 L696.118,176.012 L686.582,176.012 L686.582,173.714 L689.554,173.204 L689.554,159.110 L686.582,158.599 L686.582,156.283 L692.763,156.283 L693.073,158.800 L693.109,159.146 C693.668,158.137 694.358,157.347 695.179,156.776 C695.999,156.205 696.938,155.919 697.996,155.919 C698.372,155.919 698.758,155.952 699.153,156.019 C699.548,156.086 699.831,156.150 700.001,156.211 L699.527,159.547 ZM671.721,167.077 C671.745,168.342 671.967,169.463 672.387,170.441 C672.806,171.420 673.410,172.189 674.201,172.748 C674.991,173.307 675.939,173.587 677.045,173.587 C678.260,173.587 679.327,173.413 680.245,173.067 C681.163,172.720 681.956,172.244 682.624,171.636 L684.028,173.969 C683.323,174.650 682.390,175.225 681.230,175.692 C680.069,176.160 678.674,176.394 677.045,176.394 C675.222,176.394 673.636,175.978 672.286,175.145 C670.937,174.313 669.895,173.155 669.159,171.672 C668.424,170.189 668.056,168.475 668.056,166.530 L668.056,165.728 C668.056,163.856 668.442,162.182 669.214,160.705 C669.986,159.228 671.013,158.061 672.295,157.204 C673.578,156.347 674.979,155.919 676.498,155.919 C678.273,155.919 679.759,156.283 680.956,157.013 C682.153,157.742 683.056,158.766 683.664,160.085 C684.271,161.404 684.575,162.957 684.575,164.744 L684.575,166.986 L671.776,166.986 L671.721,167.077 ZM671.885,164.178 L680.983,164.178 L680.983,163.704 C680.983,162.756 680.816,161.908 680.482,161.161 C680.148,160.413 679.649,159.824 678.987,159.392 C678.324,158.961 677.495,158.745 676.498,158.745 C675.696,158.745 674.967,158.979 674.310,159.447 C673.654,159.915 673.113,160.550 672.687,161.352 C672.262,162.154 671.982,163.066 671.849,164.087 L671.885,164.178 ZM656.733,173.714 L659.705,173.204 L659.705,163.631 C659.705,161.893 659.361,160.659 658.675,159.930 C657.988,159.201 656.939,158.836 655.529,158.836 C654.496,158.836 653.581,159.085 652.785,159.584 C651.989,160.082 651.354,160.763 650.880,161.626 L650.880,173.204 L653.852,173.714 L653.852,176.012 L644.316,176.012 L644.316,173.714 L647.288,173.204 L647.288,159.110 L644.316,158.599 L644.316,156.283 L650.497,156.283 L650.752,159.219 C651.409,158.174 652.232,157.362 653.223,156.785 C654.214,156.208 655.341,155.919 656.605,155.919 C658.732,155.919 660.379,156.542 661.546,157.788 C662.713,159.034 663.297,160.957 663.297,163.558 L663.297,173.204 L666.269,173.714 L666.269,176.012 L656.733,176.012 L656.733,173.714 ZM640.833,175.756 C640.833,177.458 640.514,178.923 639.876,180.150 C639.238,181.378 638.308,182.323 637.086,182.986 C635.864,183.648 634.378,183.979 632.628,183.979 C631.680,183.979 630.653,183.849 629.547,183.587 C628.440,183.326 627.468,182.970 626.629,182.521 L627.559,179.731 C628.228,180.083 629.018,180.375 629.930,180.606 C630.841,180.837 631.728,180.953 632.592,180.953 C634.196,180.953 635.372,180.503 636.120,179.603 C636.867,178.704 637.241,177.421 637.241,175.756 L637.241,173.878 C636.597,174.705 635.825,175.331 634.925,175.756 C634.026,176.182 632.993,176.394 631.826,176.394 C630.221,176.394 628.836,175.996 627.669,175.200 C626.502,174.404 625.605,173.292 624.979,171.864 C624.353,170.435 624.040,168.779 624.040,166.895 L624.040,166.512 C624.040,164.397 624.353,162.544 624.979,160.951 C625.605,159.359 626.502,158.122 627.669,157.241 C628.836,156.360 630.233,155.919 631.862,155.919 C633.102,155.919 634.190,156.162 635.126,156.648 C636.062,157.134 636.846,157.840 637.478,158.763 L637.806,156.283 L638.882,156.283 L640.833,156.283 L643.276,156.283 L643.276,158.581 L640.833,159.102 L640.833,175.756 ZM637.241,161.571 C636.779,160.732 636.177,160.067 635.436,159.574 C634.694,159.082 633.801,158.836 632.756,158.836 C631.613,158.836 630.662,159.164 629.902,159.821 C629.142,160.477 628.574,161.380 628.197,162.528 C627.821,163.677 627.632,165.005 627.632,166.512 L627.632,166.895 C627.632,168.876 628.052,170.469 628.890,171.672 C629.729,172.875 631.005,173.477 632.719,173.477 C633.801,173.477 634.707,173.231 635.436,172.739 C636.165,172.246 636.767,171.551 637.241,170.651 L637.241,161.571 ZM614.521,240.300 L622.994,240.300 L622.994,242.892 L614.521,242.892 L614.521,240.300 ZM612.699,173.714 L615.671,173.204 L615.671,159.110 L612.699,158.599 L612.699,156.283 L619.263,156.283 L619.263,173.204 L622.235,173.714 L622.235,176.012 L612.699,176.012 L612.699,173.714 ZM615.488,147.568 L619.263,147.568 L619.263,151.415 L615.488,151.415 L615.488,147.568 ZM600.701,163.568 C601.272,163.841 602.111,164.112 603.217,164.379 C605.964,165.023 607.881,165.844 608.969,166.840 C610.057,167.837 610.601,169.065 610.601,170.523 C610.601,172.189 609.984,173.584 608.751,174.708 C607.517,175.832 605.575,176.394 602.925,176.394 C601.600,176.394 600.360,176.261 599.206,175.993 C598.051,175.726 596.823,175.313 595.523,174.753 L595.486,170.068 L598.203,170.068 L598.877,172.894 C599.558,173.173 600.218,173.377 600.856,173.504 C601.494,173.632 602.184,173.696 602.925,173.696 C604.384,173.696 605.429,173.416 606.061,172.857 C606.693,172.298 607.009,171.605 607.009,170.779 C607.009,170.001 606.690,169.341 606.052,168.800 C605.414,168.260 604.256,167.801 602.579,167.424 C600.196,166.877 598.443,166.145 597.318,165.227 C596.194,164.309 595.632,163.084 595.632,161.553 C595.632,160.483 595.942,159.526 596.562,158.681 C597.182,157.836 598.045,157.165 599.151,156.666 C600.257,156.168 601.545,155.919 603.016,155.919 C604.511,155.919 605.791,156.089 606.854,156.429 C607.918,156.770 608.845,157.226 609.635,157.797 L609.817,162.300 L607.119,162.300 L606.535,159.675 C606.110,159.359 605.605,159.116 605.022,158.945 C604.438,158.775 603.770,158.690 603.016,158.690 C601.898,158.690 600.989,158.952 600.290,159.474 C599.591,159.997 599.242,160.653 599.242,161.443 C599.242,161.905 599.342,162.307 599.543,162.647 C599.743,162.987 600.129,163.294 600.701,163.568 ZM580.042,167.077 C580.066,168.342 580.288,169.463 580.707,170.441 C581.127,171.420 581.731,172.189 582.522,172.748 C583.312,173.307 584.260,173.587 585.366,173.587 C586.581,173.587 587.648,173.413 588.566,173.067 C589.484,172.720 590.277,172.244 590.945,171.636 L592.349,173.969 C591.644,174.650 590.711,175.225 589.550,175.692 C588.390,176.160 586.995,176.394 585.366,176.394 C583.543,176.394 581.956,175.978 580.607,175.145 C579.258,174.313 578.216,173.155 577.480,171.672 C576.745,170.189 576.377,168.475 576.377,166.530 L576.377,165.728 C576.377,163.856 576.763,162.182 577.535,160.705 C578.307,159.228 579.334,158.061 580.616,157.204 C581.899,156.347 583.299,155.919 584.819,155.919 C586.594,155.919 588.080,156.283 589.277,157.013 C590.474,157.742 591.377,158.766 591.985,160.085 C592.592,161.404 592.896,162.957 592.896,164.744 L592.896,166.986 L580.097,166.986 L580.042,167.077 ZM580.206,164.178 L589.304,164.178 L589.304,163.704 C589.304,162.756 589.137,161.908 588.803,161.161 C588.468,160.413 587.970,159.824 587.308,159.392 C586.645,158.961 585.816,158.745 584.819,158.745 C584.017,158.745 583.287,158.979 582.631,159.447 C581.975,159.915 581.434,160.550 581.008,161.352 C580.583,162.154 580.303,163.066 580.170,164.087 L580.206,164.178 ZM569.202,174.307 C567.482,175.443 565.449,176.012 563.103,176.012 L552.528,176.012 L552.528,173.714 L555.500,173.204 L555.500,152.290 L552.528,151.780 L552.528,149.464 L555.500,149.464 L562.920,149.464 C565.266,149.464 567.311,150.024 569.056,151.142 C570.800,152.260 572.158,153.798 573.131,155.755 C574.103,157.712 574.590,159.948 574.590,162.464 L574.590,163.030 C574.590,165.485 574.122,167.694 573.186,169.657 C572.249,171.621 570.922,173.170 569.202,174.307 ZM570.998,162.428 C570.998,160.495 570.672,158.766 570.022,157.241 C569.372,155.715 568.445,154.509 567.242,153.621 C566.038,152.734 564.598,152.290 562.920,152.290 L559.092,152.290 L559.092,173.204 L562.920,173.204 C564.598,173.204 566.038,172.745 567.242,171.827 C568.445,170.909 569.372,169.682 570.022,168.144 C570.672,166.606 570.998,164.902 570.998,163.030 L570.998,162.428 ZM531.527,250.897 L546.180,250.897 L546.180,253.489 L531.527,253.489 L531.527,250.897 ZM533.637,173.714 L535.642,173.477 L535.588,173.404 L530.598,166.964 L527.529,170.048 L527.529,173.204 L530.501,173.714 L530.501,176.012 L520.965,176.012 L520.965,173.714 L523.937,173.204 L523.937,150.394 L520.965,149.884 L520.965,147.568 L527.529,147.568 L527.529,165.899 L534.512,158.945 L534.603,158.836 L532.488,158.599 L532.488,156.283 L540.985,156.283 L540.985,158.599 L538.450,159.073 L532.902,164.648 L539.708,173.277 L542.553,173.714 L542.553,176.012 L533.637,176.012 L533.637,173.714 ZM515.503,175.492 C514.379,176.094 512.996,176.394 511.355,176.394 C509.569,176.394 508.012,175.978 506.688,175.145 C505.363,174.313 504.336,173.155 503.606,171.672 C502.877,170.189 502.512,168.475 502.512,166.530 L502.512,165.765 C502.512,163.893 502.865,162.215 503.570,160.732 C504.275,159.249 505.290,158.077 506.615,157.213 C507.940,156.350 509.520,155.919 511.355,155.919 C512.948,155.919 514.342,156.180 515.540,156.703 C516.737,157.226 517.743,157.943 518.557,158.854 L518.649,163.595 L515.841,163.595 L515.221,160.149 C514.807,159.723 514.291,159.383 513.671,159.128 C513.051,158.873 512.322,158.745 511.483,158.745 C510.413,158.745 509.474,159.061 508.666,159.693 C507.857,160.325 507.228,161.170 506.779,162.227 C506.329,163.285 506.104,164.464 506.104,165.765 L506.104,166.530 C506.104,167.965 506.314,169.211 506.733,170.268 C507.153,171.326 507.754,172.143 508.538,172.720 C509.322,173.298 510.255,173.587 511.337,173.587 C512.552,173.587 513.562,173.252 514.364,172.584 C515.166,171.915 515.658,170.997 515.841,169.831 L519.068,169.831 L519.104,169.940 C519.043,171.070 518.709,172.128 518.102,173.112 C517.494,174.097 516.628,174.890 515.503,175.492 ZM494.981,174.571 C494.920,174.146 494.878,173.720 494.854,173.295 C494.161,174.182 493.295,174.921 492.256,175.510 C491.216,176.100 490.107,176.394 488.928,176.394 C486.874,176.394 485.312,175.893 484.242,174.890 C483.172,173.887 482.638,172.474 482.638,170.651 C482.638,169.399 482.981,168.308 483.668,167.378 C484.354,166.448 485.348,165.725 486.649,165.208 C487.949,164.692 489.505,164.434 491.317,164.434 L494.836,164.434 L494.836,162.501 C494.836,161.310 494.474,160.386 493.751,159.729 C493.027,159.073 492.009,158.745 490.697,158.745 C489.870,158.745 489.153,158.845 488.545,159.046 C487.937,159.246 487.384,159.523 486.886,159.875 L486.503,162.629 L483.732,162.629 L483.732,158.107 C484.619,157.390 485.652,156.846 486.831,156.475 C488.010,156.104 489.317,155.919 490.751,155.919 C493.146,155.919 495.024,156.490 496.385,157.633 C497.747,158.775 498.427,160.410 498.427,162.537 L498.427,172.037 C498.427,172.292 498.430,172.541 498.437,172.784 C498.443,173.028 498.458,173.271 498.482,173.514 L500.397,173.714 L500.397,176.012 L495.237,176.012 C495.127,175.477 495.042,174.997 494.981,174.571 ZM494.836,166.895 L491.189,166.895 C489.536,166.895 488.296,167.290 487.469,168.080 C486.643,168.870 486.230,169.752 486.230,170.724 C486.230,171.587 486.497,172.246 487.032,172.702 C487.567,173.158 488.375,173.386 489.457,173.386 C490.648,173.386 491.736,173.101 492.721,172.529 C493.705,171.958 494.410,171.271 494.836,170.469 L494.836,166.895 ZM476.948,176.321 C475.490,176.321 474.332,175.893 473.475,175.036 C472.618,174.179 472.189,172.809 472.189,170.925 L472.189,158.945 L469.072,158.945 L469.072,156.283 L472.189,156.283 L472.189,151.525 L475.781,151.525 L475.781,156.283 L480.066,156.283 L480.066,158.945 L475.781,158.945 L475.781,170.925 C475.781,171.873 475.970,172.572 476.347,173.021 C476.723,173.471 477.228,173.696 477.860,173.696 C478.285,173.696 478.759,173.657 479.282,173.577 C479.805,173.499 480.212,173.429 480.504,173.368 L480.996,175.720 C480.473,175.878 479.832,176.018 479.072,176.139 C478.313,176.261 477.605,176.321 476.948,176.321 ZM336.036,244.893 L468.127,244.893 L468.127,249.034 L336.036,249.034 L336.036,244.893 ZM455.642,159.793 C456.536,160.225 457.730,160.629 459.225,161.006 C462.021,161.699 464.139,162.723 465.579,164.078 C467.020,165.434 467.740,167.108 467.740,169.101 C467.740,170.523 467.357,171.785 466.591,172.885 C465.825,173.985 464.747,174.845 463.355,175.465 C461.963,176.084 460.325,176.394 458.441,176.394 C456.824,176.394 455.269,176.157 453.773,175.683 C452.278,175.209 450.850,174.480 449.489,173.495 L449.489,167.825 L452.278,167.825 L452.880,172.000 C453.670,172.487 454.527,172.863 455.451,173.131 C456.374,173.398 457.371,173.532 458.441,173.532 C459.656,173.532 460.687,173.347 461.532,172.976 C462.376,172.605 463.024,172.091 463.473,171.435 C463.923,170.779 464.148,170.013 464.148,169.138 C464.148,168.323 463.953,167.606 463.565,166.986 C463.175,166.366 462.534,165.822 461.641,165.354 C460.748,164.887 459.529,164.476 457.985,164.124 C456.162,163.698 454.621,163.130 453.363,162.419 C452.105,161.708 451.151,160.845 450.501,159.830 C449.850,158.815 449.525,157.651 449.525,156.338 C449.525,154.952 449.893,153.713 450.628,152.619 C451.364,151.525 452.388,150.662 453.700,150.030 C455.013,149.398 456.545,149.081 458.295,149.081 C460.155,149.081 461.799,149.364 463.227,149.929 C464.655,150.494 465.831,151.178 466.755,151.980 L466.755,157.286 L463.966,157.286 L463.364,153.494 C462.817,153.056 462.136,152.692 461.322,152.400 C460.507,152.108 459.499,151.962 458.295,151.962 C457.274,151.962 456.374,152.142 455.597,152.500 C454.819,152.859 454.211,153.360 453.773,154.004 C453.336,154.649 453.117,155.408 453.117,156.283 C453.117,157.049 453.314,157.718 453.710,158.289 C454.104,158.861 454.749,159.362 455.642,159.793 ZM437.399,173.714 L440.371,173.204 L440.371,150.394 L437.399,149.884 L437.399,147.568 L443.963,147.568 L443.963,173.204 L446.935,173.714 L446.935,176.012 L437.399,176.012 L437.399,173.714 ZM426.240,173.714 L429.212,173.204 L429.212,150.394 L426.240,149.884 L426.240,147.568 L432.804,147.568 L432.804,173.204 L435.776,173.714 L435.776,176.012 L426.240,176.012 L426.240,173.714 ZM418.928,173.094 C418.308,174.152 417.509,174.966 416.530,175.537 C415.552,176.109 414.424,176.394 413.148,176.394 C411.009,176.394 409.337,175.708 408.134,174.334 C406.931,172.961 406.329,170.821 406.329,167.916 L406.329,159.110 L404.068,158.599 L404.068,156.283 L406.329,156.283 L409.921,156.283 L409.921,167.953 C409.921,170.056 410.231,171.502 410.851,172.292 C411.471,173.082 412.437,173.477 413.750,173.477 C415.026,173.477 416.081,173.219 416.913,172.702 C417.746,172.186 418.375,171.453 418.800,170.505 L418.800,159.110 L416.157,158.599 L416.157,156.283 L418.800,156.283 L422.392,156.283 L422.392,173.204 L424.653,173.714 L424.653,176.012 L419.165,176.012 L418.928,173.094 ZM399.126,152.254 L389.007,152.254 L389.007,161.443 L398.725,161.443 L398.725,164.269 L389.007,164.269 L389.007,173.204 L391.979,173.714 L391.979,176.012 L382.443,176.012 L382.443,173.714 L385.415,173.204 L385.415,166.523 L389.072,162.866 L385.415,159.210 L385.415,152.290 L382.443,151.780 L382.443,149.464 L402.408,149.464 L402.408,155.846 L399.527,155.846 L399.126,152.254 ZM363.580,162.572 L363.808,162.344 L363.580,162.116 L363.580,149.461 L378.660,164.540 L363.580,179.620 L363.580,162.572 ZM357.616,112.077 L357.616,198.735 L404.786,198.735 L404.786,219.579 L330.518,219.579 L330.518,107.174 L352.714,107.174 L249.456,3.917 L250.259,3.114 L354.319,107.174 L357.616,107.174 L357.616,110.471 L372.187,125.042 C371.297,124.679 370.403,124.316 369.493,123.954 L357.616,112.077 ZM173.340,72.757 L245.818,0.279 L249.456,3.917 L180.615,72.757 L173.340,72.757 ZM314.463,100.343 L307.131,100.343 L313.962,107.174 L325.571,107.174 L325.571,128.096 L277.475,128.096 L277.475,153.958 L321.171,153.958 L321.171,174.803 L277.475,174.803 L277.475,219.579 L250.377,219.579 L250.377,107.174 L309.396,107.174 L302.564,100.343 L301.808,100.343 L244.679,43.215 L180.719,107.174 L245.816,107.174 L245.816,128.096 L195.327,128.096 L195.327,151.797 L237.942,151.797 L237.942,171.869 L195.327,171.869 L195.327,198.735 L245.662,198.735 L245.662,219.579 L192.216,219.579 L248.101,275.465 L245.818,277.748 L187.649,219.579 L175.940,219.579 L241.256,284.896 L249.394,276.758 L248.101,275.465 L318.371,205.196 L322.694,205.187 L299.457,228.424 L314.776,228.424 L244.860,298.340 L117.207,170.687 L108.606,179.288 L243.703,314.385 L242.900,315.188 L105.646,177.933 L115.049,168.530 L111.060,164.540 L168.229,107.371 L168.229,107.174 L168.426,107.174 L244.860,30.740 L314.463,100.343 ZM168.229,112.819 L118.704,162.344 L119.970,163.609 L168.229,115.350 L168.229,112.819 ZM168.229,119.665 L122.127,165.767 L168.229,211.869 L168.229,119.665 ZM241.256,39.792 L173.873,107.174 L176.405,107.174 L242.522,41.057 L241.256,39.792 ZM319.815,245.549 L247.341,318.023 L243.703,314.385 L312.539,245.549 L319.815,245.549 ZM152.179,71.946 L166.362,71.946 L166.362,73.595 L152.179,73.595 L152.179,71.946 ZM67.877,93.421 L125.605,93.421 L125.605,95.070 L67.877,95.070 L67.877,93.421 ZM51.148,74.661 L68.082,74.661 L68.082,76.310 L51.148,76.310 L51.148,74.661 ZM46.086,60.173 L52.454,60.173 L52.454,61.822 L46.086,61.822 L46.086,60.173 ZM16.466,57.401 L24.835,57.401 L24.835,59.568 L16.466,59.568 L16.466,57.401 ZM0.161,66.917 L2.596,66.917 L2.596,68.566 L0.161,68.566 L0.161,66.917 ZM486.549,281.232 L464.262,281.232 L464.262,278.640 L486.549,278.640 L486.549,281.232 ZM504.152,241.343 L492.143,241.343 L492.143,238.751 L504.152,238.751 L504.152,241.343 ZM597.372,256.296 L579.575,256.296 L579.575,252.890 L597.372,252.890 L597.372,256.296 Z"/>
</svg>