<svg 
 xmlns="http://www.w3.org/2000/svg"
 xmlns:xlink="http://www.w3.org/1999/xlink"
 width="519px" height="645px">
<path fill-rule="evenodd"  fill="rgb(42, 253, 241)"
 d="M224.065,431.414 L219.351,426.700 L241.192,404.859 L245.906,409.573 L224.065,431.414 ZM203.816,325.133 L244.353,284.596 L249.067,289.310 L208.530,329.847 L203.816,325.133 ZM400.567,232.569 L486.573,318.575 L168.447,636.700 L162.488,630.741 L467.275,325.954 L387.229,245.908 L278.416,354.720 L270.885,347.189 L379.698,238.377 L157.443,16.121 L6.876,166.688 L2.208,166.688 L168.447,0.449 L393.036,225.038 L511.133,106.941 L518.664,114.472 L400.567,232.569 ZM20.506,629.339 L5.096,644.749 L0.382,640.035 L15.792,624.625 L20.506,629.339 ZM61.169,542.878 L28.798,575.249 L22.603,569.054 L54.973,536.683 L61.169,542.878 ZM152.183,459.113 L125.531,485.765 L120.817,481.051 L147.469,454.399 L152.183,459.113 Z"/>
</svg>