<svg 
 xmlns="http://www.w3.org/2000/svg"
 xmlns:xlink="http://www.w3.org/1999/xlink"
 width="554px" height="674px">
<path fill-rule="evenodd"  fill="rgb(255, 255, 255)"
 d="M282.460,444.213 L260.620,466.054 L255.906,461.340 L277.746,439.499 L282.460,444.213 ZM231.710,347.519 L272.247,306.982 L276.961,311.696 L236.424,352.233 L231.710,347.519 ZM160.092,524.045 L151.738,515.691 L178.389,489.039 L186.743,497.393 L160.092,524.045 ZM441.178,264.799 L509.811,333.432 L183.471,659.772 L178.342,654.642 L502.772,330.212 L439.269,266.708 L312.977,393.001 L304.623,384.646 L430.915,258.354 L181.562,9.001 L183.471,7.093 L432.824,256.445 L544.871,144.398 L553.225,152.753 L441.178,264.799 ZM92.368,579.526 L70.457,601.438 L64.261,595.243 L86.173,573.331 L1.436,488.594 L12.293,488.594 L178.342,654.642 L172.913,660.071 L92.368,579.526 ZM0.578,172.687 L172.913,0.352 L181.562,9.001 L17.876,172.687 L0.578,172.687 ZM49.178,666.227 L42.219,673.187 L37.505,668.473 L44.464,661.513 L49.178,666.227 Z"/>
</svg>