<svg 
 xmlns="http://www.w3.org/2000/svg"
 xmlns:xlink="http://www.w3.org/1999/xlink"
 width="682px" height="661px">
<path fill-rule="evenodd"  fill="rgb(255, 255, 255)"
 d="M674.906,124.966 L670.192,120.252 L677.151,113.293 L681.865,118.007 L674.906,124.966 ZM582.660,403.961 L542.123,444.498 L537.409,439.784 L577.946,399.247 L582.660,403.961 ZM559.278,262.434 L567.632,270.789 L540.981,297.440 L532.627,289.086 L559.278,262.434 ZM441.624,346.980 L436.910,342.266 L458.750,320.426 L463.464,325.140 L441.624,346.980 ZM335.810,655.192 L660.241,330.762 L339.031,9.552 L340.940,7.643 L667.279,333.982 L340.940,660.322 L335.810,655.192 ZM243.170,573.410 L174.499,642.081 L166.145,633.727 L234.816,565.056 L158.917,489.156 L169.774,489.156 L240.245,559.627 L406.393,393.479 L414.747,401.833 L248.599,567.981 L335.810,655.192 L330.382,660.621 L243.170,573.410 ZM158.034,173.250 L330.382,0.902 L339.031,9.552 L175.333,173.250 L158.034,173.250 ZM622.177,211.778 L648.913,185.041 L655.109,191.237 L628.372,217.973 L622.177,211.778 Z"/>
</svg>