<svg 
 xmlns="http://www.w3.org/2000/svg"
 xmlns:xlink="http://www.w3.org/1999/xlink"
 width="815px" height="729px">
<path fill-rule="evenodd"  fill="rgb(237, 0, 25)"
 d="M674.378,239.319 L731.725,296.667 C729.614,295.807 727.484,294.947 725.328,294.087 L672.469,241.228 L549.264,364.433 L544.550,359.719 L667.755,236.514 L439.927,8.686 L441.836,6.777 L669.664,234.605 L810.151,94.118 L814.865,98.832 L674.378,239.319 ZM258.952,172.363 L326.194,105.121 L295.246,74.173 L300.675,68.744 L331.623,99.692 L431.278,0.037 L439.927,8.686 L276.250,172.363 L258.952,172.363 ZM186.797,172.363 L290.117,69.044 L295.246,74.173 L197.056,172.363 L186.797,172.363 ZM303.003,627.403 L298.289,622.689 L305.248,615.729 L309.962,620.443 L303.003,627.403 ZM352.932,515.938 L359.127,522.133 L335.208,546.053 L329.012,539.858 L352.932,515.938 ZM418.317,464.112 L423.031,468.826 L404.830,487.026 L400.116,482.312 L418.317,464.112 ZM490.939,315.571 L531.475,275.034 L536.189,279.748 L495.653,320.285 L490.939,315.571 ZM517.449,412.956 L512.735,408.242 L534.576,386.402 L539.290,391.116 L517.449,412.956 ZM259.443,487.921 L270.280,487.900 L436.707,654.327 L431.278,659.756 L400.330,628.808 L300.675,728.463 L292.026,719.814 L391.681,620.159 L259.443,487.921 ZM614.060,487.233 L441.836,659.456 L436.707,654.327 L603.781,487.253 L614.060,487.233 ZM290.117,721.723 L0.228,431.833 C2.339,432.693 4.470,433.553 6.625,434.413 L292.026,719.814 L290.117,721.723 Z"/>
</svg>